<?xml version="1.0" encoding="UTF-8"?>
<svg xmlns="http://www.w3.org/2000/svg" version="1.1" viewBox="0 0 800 460.2">
  <defs>
    <style>
      .cls-1 {
        fill: #cf946b;
      }

      .cls-2 {
        fill: #402a1b;
      }

      .cls-3 {
        fill: #a66e4a;
      }

      .cls-4 {
        fill: #442e20;
      }

      .cls-5 {
        opacity: .4;
      }

      .cls-5, .cls-6, .cls-7 {
        stroke: #231f20;
        stroke-miterlimit: 10;
      }

      .cls-5, .cls-7 {
        fill: #2e3192;
      }

      .cls-6 {
        fill: #ef4136;
      }

      .cls-8 {
        fill: #1e5857;
      }

      .cls-9 {
        fill: #f68a47;
      }

      .cls-10 {
        fill: #8a654a;
      }

      .cls-11 {
        fill: #fff;
      }

      .cls-12 {
        fill: #8fcecb;
      }

      .cls-13 {
        fill: #cd9166;
      }

      .cls-14 {
        fill: #1e5855;
      }

      .cls-15 {
        fill: #ffd58c;
      }

      .cls-16 {
        fill: #2d1b13;
      }

      .cls-17 {
        fill: #f7941d;
      }

      .cls-18 {
        fill: #a06c4b;
      }
    </style>
  </defs>
  <!-- Generator: Adobe Illustrator 28.7.1, SVG Export Plug-In . SVG Version: 1.2.0 Build 142)  -->
  <g>
    <g id="Layer_1">
      <g>
        <ellipse class="cls-8" cx="392.4" cy="440.5" rx="390.1" ry="11.3"/>
        <circle class="cls-16" cx="550.8" cy="377.4" r="57.3"/>
        <rect class="cls-15" x="421.7" y="19.2" width="292.8" height="97.6"/>
        <rect class="cls-1" x="538.1" y="116.3" width="174" height="235.2"/>
        <circle class="cls-16" cx="246.3" cy="377.4" r="57.3"/>
        <rect class="cls-15" x="303.7" y="116.3" width="234.4" height="235.2"/>
        <rect class="cls-5" x="266.4" y="116.3" width="37.2" height="235.2"/>
        <path class="cls-12" d="M266.4,351.6H17.6c-.4-20.4-.2-37.3,0-50,.1-7.7.4-14.5,2-23.3,1.8-9.5,4.7-18.5,9.1-28.4,12.1-26.9,32.2-53.2,38.4-61.2,30.4-39.4,46-59.2,63.7-65.9,7.5-2.9,13.5-3.8,45-5.1,35.3-1.4,66-1.6,90.7-1.3v235.2Z"/>
        <path class="cls-7" d="M112.1,132.4"/>
        <rect class="cls-13" x="301.8" y="215.5" width="234.4" height="36.1" transform="translate(652.6 -185.5) rotate(90)"/>
        <path class="cls-14" d="M66.3,351.6c-6.5,10.4-10.2,22.7-10.2,35.9s0,.9,0,1.4H17.7c-6.3,0-11.5-5.1-11.5-11.5v-14.3c0-6.3,5.1-11.5,11.5-11.5h48.7Z"/>
        <path class="cls-14" d="M366.3,351.6c-7.3,10.6-11.6,23.4-11.8,37.2h-165.4c0-.4,0-.9,0-1.4,0-13.2-3.7-25.5-10.2-35.9h187.5Z"/>
        <path class="cls-16" d="M487.3,388.8h-132.9c.2-13.8,4.6-26.6,11.8-37.2,12-17.5,32-29,54.6-29s42.6,11.5,54.6,29c7.3,10.6,11.6,23.4,11.8,37.2Z"/>
        <path class="cls-14" d="M546.8,363.1v14.3c0,6.3-5.1,11.5-11.5,11.5h-48c-.2-13.8-4.6-26.6-11.8-37.2h59.9c6.3,0,11.5,5.1,11.5,11.5Z"/>
        <circle class="cls-4" cx="420.9" cy="388.8" r="57.3"/>
        <rect class="cls-2" x="526" y="351.6" width="198.2" height="37.2" rx="8.9" ry="8.9"/>
        <polygon class="cls-1" points="216.1 30.2 448.2 30.2 538.1 116.3 303.7 116.3 216.1 30.2"/>
        <polygon class="cls-18" points="797.7 30.2 712.1 116.3 538.1 116.3 625.1 30.2 797.7 30.2"/>
        <path class="cls-11" d="M234.1,254.6v-110.7c-43.5-.7-75.4-.6-82.8,0-5,.4-9.5,1.8-9.5,1.8s-4.9,1.5-9.5,4.1c-17.1,9.7-53.2,68.4-53.2,68.4-5.4,8.8-13.7,21.6-24.8,36.7,60,0,119.9-.2,179.9-.2Z"/>
        <path class="cls-16" d="M189,387.5c0,.5,0,.9,0,1.4H56.2c0-.4,0-.9,0-1.4,0-13.2,3.7-25.5,10.2-35.9,11.8-18.9,32.6-31.5,56.2-31.5s44.5,12.6,56.2,31.5c6.5,10.4,10.2,22.7,10.2,35.9Z"/>
        <path class="cls-11" d="M17.5,344.1v-44.8c1.5,0,10.3-.5,17.2,6.5,6.3,6.4,6.2,14.4,6.1,15.8,0,1.4-.5,11-8.5,17.4-6.1,4.9-12.8,5-14.8,5Z"/>
        <circle class="cls-4" cx="123.9" cy="388.8" r="57.3"/>
        <circle class="cls-11" cx="123.7" cy="388.8" r="28.5"/>
        <circle class="cls-11" cx="420.9" cy="390" r="28.5"/>
        <rect class="cls-9" x="512.5" y="308.8" width="50.3" height="24.5"/>
        <rect class="cls-9" x="688.4" y="309.8" width="23.7" height="23.7"/>
        <circle class="cls-11" cx="700.2" cy="370.2" r="7.8"/>
        <circle class="cls-11" cx="682.7" cy="370.2" r="3.8"/>
        <circle class="cls-11" cx="550.8" cy="370.2" r="7.8"/>
        <circle class="cls-11" cx="566.7" cy="370.2" r="3.8"/>
        <path class="cls-17" d="M200.7,271.3c-2.8-1.8-2.6-4.8-2.2-6.5h37.7c.1,1.7,0,4.8-3.3,6.7-2.2,1.3-4.4,1.2-16.1,1.1-11.8,0-14.1,0-16.1-1.3Z"/>
        <rect class="cls-3" x="538.1" y="214.7" width="174" height="36.1"/>
        <rect class="cls-13" x="305.4" y="214.7" width="232.7" height="36.1"/>
        <rect class="cls-3" x="507.9" y="215.9" width="234.4" height="36.1" transform="translate(859 -391.1) rotate(90)"/>
        <rect class="cls-9" x="169" y="214.8" width="234.4" height="38.3" transform="translate(520.2 -52.2) rotate(90)"/>
        <polygon class="cls-3" points="317.2 30.2 351.4 30.2 437.1 116.3 401 116.3 317.2 30.2"/>
        <polygon class="cls-10" points="695.3 32.6 724.4 32.6 643.1 116.8 607.1 116.8 695.3 32.6"/>
        <path class="cls-6" d="M381.2-70.5"/>
        <path class="cls-4" d="M200.2,270.2c-2.8-1.8-2.6-4.8-2.2-6.5h37.7c.1,1.7,0,4.8-3.3,6.7-2.2,1.3-4.4,1.2-16.1,1.1-11.8,0-14.1,0-16.1-1.3Z"/>
      </g>
    </g>
  </g>
</svg>