<?xml version="1.0" encoding="UTF-8"?>
<svg id="Layer_1" xmlns="http://www.w3.org/2000/svg" viewBox="0 0 50 50">
  <defs>
    <style>
      .cls-1 {
        fill: #589ace;
      }

      .cls-2 {
        fill: #69c5c0;
      }

      .cls-3 {
        fill: none;
      }

      .cls-3, .cls-4 {
        stroke: #f4faf9;
        stroke-miterlimit: 10;
      }

      .cls-4 {
        fill: #fff;
      }

      .cls-5 {
        fill: #f4faf9;
      }
    </style>
  </defs>
  <circle class="cls-2" cx="25" cy="25" r="22.5"/>
  <path class="cls-5" d="M20.79,14.84c0,.62-.14,1.22-.39,1.75h0l-.66,1-3.23,4.89-3.12-5.11-.48-.79h0c-.25-.53-.39-1.12-.39-1.75,0-2.28,1.85-4.13,4.13-4.13s4.13,1.85,4.13,4.13Z"/>
  <path class="cls-5" d="M40.39,25.99c0,.62-.14,1.22-.39,1.75h0l-.66,1-3.23,4.89-3.12-5.11-.48-.79h0c-.25-.53-.39-1.12-.39-1.75,0-2.28,1.85-4.13,4.13-4.13s4.13,1.85,4.13,4.13h0Z"/>
  <circle class="cls-5" cx="16.66" cy="24.76" r="1.26"/>
  <circle class="cls-4" cx="36.25" cy="36.11" r="1.26"/>
  <path class="cls-3" d="M16.46,24.71c2.51,0,10.72.02,10.92.05.06,0,.11.02.11.02.07.01.16.03.26.07.93.33,1.65,1.49,1.67,2.65.02,1.24-.74,2.45-1.7,2.79-.15.06-.28.08-.33.09-2.12.34-5.87-.17-8.27,0-.12,0-.31.03-.55.12-.97.37-1.67,1.6-1.62,2.82.05,1.18.8,2.29,1.74,2.65.25.1.48.12.62.13.06,0,.11,0,.13,0,.42,0,14.5,0,15.54,0"/>
  <circle class="cls-1" cx="16.57" cy="14.81" r="2.34"/>
  <circle class="cls-1" cx="36.25" cy="26.09" r="2.34"/>
</svg>