<?xml version="1.0" encoding="UTF-8"?>
<svg xmlns="http://www.w3.org/2000/svg" version="1.1" viewBox="0 0 50 50">
  <defs>
    <style>
      .cls-1 {
        fill: #589ace;
      }

      .cls-2 {
        fill: #69c5c0;
      }

      .cls-3 {
        fill: none;
      }

      .cls-3, .cls-4 {
        stroke: #f4faf9;
        stroke-miterlimit: 10;
      }

      .cls-4 {
        fill: #fff;
      }

      .cls-5 {
        fill: #f4faf9;
      }
    </style>
  </defs>
  <!-- Generator: Adobe Illustrator 28.7.1, SVG Export Plug-In . SVG Version: 1.2.0 Build 142)  -->
  <g>
    <g id="Layer_1">
      <circle class="cls-2" cx="25" cy="25" r="22.5"/>
      <path class="cls-5" d="M20.8,14.8c0,.6-.1,1.2-.4,1.7h0l-.7,1-3.2,4.9-3.1-5.1-.5-.8h0c-.2-.5-.4-1.1-.4-1.7,0-2.3,1.9-4.1,4.1-4.1s4.1,1.9,4.1,4.1Z"/>
      <path class="cls-5" d="M40.4,26c0,.6-.1,1.2-.4,1.7h0l-.7,1-3.2,4.9-3.1-5.1-.5-.8h0c-.2-.5-.4-1.1-.4-1.7,0-2.3,1.9-4.1,4.1-4.1s4.1,1.9,4.1,4.1h0Z"/>
      <circle class="cls-5" cx="16.7" cy="24.8" r="1.3"/>
      <circle class="cls-4" cx="36.3" cy="36.1" r="1.3"/>
      <path class="cls-3" d="M16.5,24.7c2.5,0,10.7,0,10.9,0,0,0,.1,0,.1,0,0,0,.2,0,.3,0,.9.3,1.7,1.5,1.7,2.7,0,1.2-.7,2.4-1.7,2.8-.2,0-.3,0-.3,0-2.1.3-5.9-.2-8.3,0-.1,0-.3,0-.5.1-1,.4-1.7,1.6-1.6,2.8,0,1.2.8,2.3,1.7,2.7.3,0,.5.1.6.1,0,0,.1,0,.1,0,.4,0,14.5,0,15.5,0"/>
      <circle class="cls-1" cx="16.6" cy="14.8" r="2.3"/>
      <circle class="cls-1" cx="36.3" cy="26.1" r="2.3"/>
    </g>
  </g>
</svg>