<?xml version="1.0" encoding="UTF-8"?>
<svg id="Layer_1" xmlns="http://www.w3.org/2000/svg" viewBox="0 0 800 800">
  <defs>
    <style>
      .cls-1 {
        fill: #fff;
      }

      .cls-1, .cls-2 {
        stroke: #f4faf9;
        stroke-miterlimit: 10;
      }

      .cls-3 {
        fill: #69c5c0;
      }

      .cls-4 {
        fill: #589ace;
      }

      .cls-5 {
        fill: #f4faf9;
      }

      .cls-2 {
        fill: none;
        stroke-width: 6px;
      }
    </style>
  </defs>
  <circle class="cls-3" cx="400" cy="400" r="293.08"/>
  <path class="cls-5" d="M345.17,267.68c0,8.14-1.81,15.85-5.04,22.77h-.01s-8.59,13.05-8.59,13.05l-42.03,63.75-40.69-66.52-6.28-10.27h-.01c-3.23-6.93-5.04-14.64-5.04-22.78,0-29.74,24.11-53.84,53.85-53.84s53.84,24.1,53.84,53.84Z"/>
  <path class="cls-5" d="M600.42,412.88c0,8.14-1.81,15.85-5.04,22.77h-.01s-8.59,13.05-8.59,13.05l-42.03,63.75-40.69-66.52-6.28-10.27h-.01c-3.23-6.93-5.04-14.64-5.04-22.78,0-29.74,24.11-53.84,53.85-53.84s53.84,24.1,53.84,53.84Z"/>
  <circle class="cls-5" cx="291.32" cy="396.91" r="16.35"/>
  <circle class="cls-1" cx="546.57" cy="544.73" r="16.35"/>
  <path class="cls-2" d="M307.67,396.91c29.33-.7,104.3-2.27,123.31,0,.71.09,2.58.32,4.88,1.14,12.15,4.29,21.5,19.39,21.79,34.52.31,16.11-9.66,31.86-22.14,36.4-1.98.72-3.59,1-4.27,1.11-27.64,4.49-76.45-2.2-107.69.13-1.52.11-4.07.33-7.15,1.51-12.58,4.8-21.77,20.86-21.11,36.71.64,15.36,10.39,29.81,22.72,34.53,4.54,1.74,8.44,1.78,9.73,1.79,16.32.05,94.77.12,202.47,0"/>
  <circle class="cls-4" cx="290.17" cy="267.23" r="30.51"/>
  <circle class="cls-4" cx="546.57" cy="414.25" r="30.51"/>
</svg>