<?xml version="1.0" encoding="UTF-8"?>
<svg id="Layer_1" xmlns="http://www.w3.org/2000/svg" viewBox="0 0 800 800">
  <defs>
    <style>
      .cls-1 {
        fill: #cf946b;
      }

      .cls-2 {
        fill: #402a1b;
      }

      .cls-3 {
        fill: #a66e4a;
      }

      .cls-4 {
        fill: #442e20;
      }

      .cls-5 {
        fill: #2e3192;
        opacity: .39;
        stroke: #231f20;
        stroke-miterlimit: 10;
      }

      .cls-6 {
        fill: #1e5857;
      }

      .cls-7 {
        fill: #f68a47;
      }

      .cls-8 {
        fill: #8a654a;
      }

      .cls-9 {
        fill: #fff;
      }

      .cls-10 {
        fill: #8fcecb;
      }

      .cls-11 {
        fill: #cd9166;
      }

      .cls-12 {
        fill: #1e5855;
      }

      .cls-13 {
        fill: #ffd58c;
      }

      .cls-14 {
        fill: #2d1b13;
      }

      .cls-15 {
        fill: #f7941d;
      }

      .cls-16 {
        fill: #a06c4b;
      }
    </style>
  </defs>
  <ellipse class="cls-6" cx="392.99" cy="629.3" rx="358.08" ry="10.38"/>
  <circle class="cls-14" cx="538.44" cy="571.42" r="52.61"/>
  <rect class="cls-13" x="419.94" y="242.56" width="268.76" height="89.59"/>
  <rect class="cls-1" x="526.74" y="331.78" width="159.72" height="215.93"/>
  <circle class="cls-14" cx="258.95" cy="571.42" r="52.61"/>
  <rect class="cls-13" x="311.57" y="331.78" width="215.18" height="215.93"/>
  <rect class="cls-5" x="277.41" y="331.78" width="34.16" height="215.93"/>
  <path class="cls-10" d="M277.41,547.7H48.97c-.35-18.7-.23-34.22,0-45.94.14-7.11.32-13.3,1.82-21.37,1.62-8.74,4.28-16.95,8.36-26.03,11.09-24.7,29.54-48.79,35.24-56.17,27.93-36.13,42.22-54.31,58.43-60.52,6.89-2.64,12.38-3.53,41.33-4.67,32.4-1.27,60.55-1.46,83.26-1.23v215.93Z"/>
  <rect class="cls-11" x="309.87" y="422.82" width="215.18" height="33.1" transform="translate(856.83 21.9) rotate(90)"/>
  <path class="cls-12" d="M93.73,547.71c-5.93,9.53-9.37,20.82-9.37,32.92,0,.42,0,.84.02,1.25h-35.32c-5.82,0-10.53-4.72-10.53-10.53v-13.1c0-5.82,4.72-10.53,10.53-10.53h44.66Z"/>
  <path class="cls-12" d="M369.04,547.71c-6.68,9.72-10.65,21.48-10.86,34.17h-151.87c.02-.41.02-.83.02-1.25,0-12.1-3.43-23.39-9.37-32.92h172.07Z"/>
  <path class="cls-14" d="M480.13,581.88h-121.95c.21-12.69,4.19-24.45,10.86-34.17,11.01-16.07,29.35-26.59,50.12-26.59s39.1,10.52,50.11,26.59c6.68,9.72,10.65,21.48,10.86,34.17Z"/>
  <path class="cls-12" d="M534.74,558.24v13.1c0,5.82-4.72,10.53-10.53,10.53h-44.08c-.21-12.69-4.19-24.45-10.86-34.17h54.94c5.82,0,10.53,4.72,10.53,10.53Z"/>
  <circle class="cls-4" cx="419.15" cy="581.88" r="52.61"/>
  <rect class="cls-2" x="515.62" y="547.7" width="181.97" height="34.18" rx="8.94" ry="8.94"/>
  <polygon class="cls-1" points="231.21 252.72 444.28 252.72 526.74 331.78 311.57 331.78 231.21 252.72"/>
  <polygon class="cls-16" points="765.09 252.72 686.46 331.78 526.74 331.78 606.6 252.72 765.09 252.72"/>
  <path class="cls-9" d="M247.74,458.69v-101.59c-39.89-.68-69.22-.58-76.04,0-4.59.39-8.69,1.62-8.69,1.62s-4.5,1.35-8.73,3.75c-15.69,8.89-48.82,62.74-48.82,62.74-4.96,8.06-12.54,19.83-22.8,33.69,55.03-.07,110.06-.14,165.09-.21Z"/>
  <path class="cls-14" d="M206.34,580.63c0,.42,0,.84-.02,1.25h-121.93c-.02-.41-.02-.83-.02-1.25,0-12.1,3.43-23.39,9.37-32.92,10.79-17.36,29.88-28.9,51.63-28.9s40.82,11.54,51.62,28.9c5.93,9.53,9.37,20.82,9.37,32.92Z"/>
  <path class="cls-9" d="M48.87,540.83l.13-41.08c1.2-.07,9.37-.42,15.62,6.01,5.74,5.9,5.68,13.2,5.64,14.53-.04,1.32-.45,10.06-7.81,15.98-5.59,4.49-11.77,4.6-13.59,4.56Z"/>
  <circle class="cls-4" cx="146.61" cy="581.88" r="52.61"/>
  <circle class="cls-9" cx="146.39" cy="581.88" r="26.16"/>
  <circle class="cls-9" cx="419.15" cy="582.94" r="26.16"/>
  <rect class="cls-7" x="503.3" y="508.45" width="46.18" height="22.49"/>
  <rect class="cls-7" x="664.71" y="509.35" width="21.75" height="21.75"/>
  <circle class="cls-9" cx="675.59" cy="564.79" r="7.15"/>
  <circle class="cls-9" cx="659.5" cy="564.79" r="3.52"/>
  <circle class="cls-9" cx="538.44" cy="564.79" r="7.15"/>
  <circle class="cls-9" cx="553.01" cy="564.79" r="3.52"/>
  <path class="cls-15" d="M217.1,474.01c-2.58-1.7-2.37-4.41-2.02-5.99h34.59c.13,1.52,0,4.41-3.01,6.15-2.01,1.16-4.01,1.06-14.74,1.01-10.85-.04-12.96.05-14.82-1.17Z"/>
  <rect class="cls-3" x="526.74" y="422.07" width="159.72" height="33.1"/>
  <rect class="cls-11" x="313.13" y="422.07" width="213.61" height="33.1"/>
  <rect class="cls-3" x="499.01" y="423.19" width="215.18" height="33.1" transform="translate(1046.34 -166.86) rotate(90)"/>
  <rect class="cls-7" x="187.95" y="422.14" width="215.18" height="35.2" transform="translate(735.28 144.2) rotate(90)"/>
  <polygon class="cls-3" points="324.02 252.72 355.4 252.72 434.01 331.78 400.91 331.78 324.02 252.72"/>
  <polygon class="cls-8" points="671.01 254.87 697.8 254.87 623.15 332.15 590.05 332.15 671.01 254.87"/>
  <path class="cls-4" d="M216.63,473c-2.58-1.7-2.37-4.41-2.02-5.99h34.59c.13,1.52,0,4.41-3.01,6.15-2.01,1.16-4.01,1.06-14.74,1.01-10.85-.04-12.96.05-14.82-1.17Z"/>
</svg>