<?xml version="1.0" encoding="UTF-8"?>
<svg xmlns="http://www.w3.org/2000/svg" version="1.1" viewBox="0 0 200 200">
  <defs>
    <style>
      .cls-1 {
        fill: #589ace;
      }

      .cls-2 {
        fill: #69c5c0;
      }

      .cls-3 {
        fill: #fff;
      }

      .cls-3, .cls-4 {
        stroke: #f4faf9;
        stroke-miterlimit: 10;
      }

      .cls-5 {
        fill: #f4faf9;
      }

      .cls-4 {
        fill: none;
        stroke-width: 3px;
      }
    </style>
  </defs>
  <!-- Generator: Adobe Illustrator 28.7.1, SVG Export Plug-In . SVG Version: 1.2.0 Build 142)  -->
  <g>
    <g id="Layer_1">
      <circle class="cls-2" cx="100" cy="100" r="97.5"/>
      <path class="cls-5" d="M81.8,56c0,2.7-.6,5.3-1.7,7.6h0l-2.9,4.3-14,21.2-13.5-22.1-2.1-3.4h0c-1.1-2.3-1.7-4.9-1.7-7.6,0-9.9,8-17.9,17.9-17.9s17.9,8,17.9,17.9Z"/>
      <path class="cls-5" d="M166.7,104.3c0,2.7-.6,5.3-1.7,7.6h0l-2.9,4.3-14,21.2-13.5-22.1-2.1-3.4h0c-1.1-2.3-1.7-4.9-1.7-7.6,0-9.9,8-17.9,17.9-17.9s17.9,8,17.9,17.9h0Z"/>
      <circle class="cls-5" cx="63.8" cy="99" r="5.4"/>
      <circle class="cls-3" cx="148.8" cy="148.1" r="5.4"/>
      <path class="cls-4" d="M63,98.8c10.9,0,46.5.1,47.3.2.2,0,.5,0,.5,0,.3,0,.7.1,1.1.3,4,1.4,7.2,6.5,7.2,11.5.1,5.4-3.2,10.6-7.4,12.1-.7.2-1.2.3-1.4.4-9.2,1.5-25.4-.7-35.8,0-.5,0-1.4.1-2.4.5-4.2,1.6-7.2,6.9-7,12.2.2,5.1,3.5,9.9,7.6,11.5,1.1.4,2.1.5,2.7.6.3,0,.5,0,.5,0,1.8,0,62.8,0,67.4,0"/>
      <circle class="cls-1" cx="63.5" cy="55.8" r="10.1"/>
      <circle class="cls-1" cx="148.8" cy="104.7" r="10.1"/>
    </g>
  </g>
</svg>